<?xml version="1.0" standalone="no"?>
<!DOCTYPE svg PUBLIC "-//W3C//DTD SVG 20010904//EN"
 "http://www.w3.org/TR/2001/REC-SVG-20010904/DTD/svg10.dtd">
<svg version="1.0" xmlns="http://www.w3.org/2000/svg"
 width="1005pt" height="1475pt" viewBox="0 0 1005 1475"
 preserveAspectRatio="xMidYMid meet">

<g transform="translate(-20,1486) scale(0.1,-0.1)"
fill="#000000" stroke="none">
<path d="M663 14844 c-77 -21 -218 -108 -279 -172 -57 -60 -139 -211 -168
-311 -15 -50 -16 -658 -16 -6889 l0 -6834 25 -66 c91 -239 215 -362 443 -438
l73 -24 4481 0 4481 0 71 21 c169 50 245 95 324 193 86 106 112 157 133 262
19 95 19 197 17 6948 l-3 6851 -33 75 c-33 74 -82 147 -151 223 -51 56 -135
109 -241 150 l-55 22 -4525 1 c-3896 2 -4532 0 -4577 -12z m4685 -625 l123
-121 -80 -86 c-44 -48 -98 -105 -120 -127 l-41 -39 -120 119 c-66 66 -120 124
-120 130 0 7 229 245 235 245 1 0 56 -54 123 -121z m-2799 13 l-1327 -2 -17
-43 c-27 -66 -98 -166 -168 -236 -62 -62 -189 -151 -214 -151 -10 0 -13 -500
-13 -2467 0 -1356 -3 -2464 -6 -2461 -3 3 -5 1112 -4 2464 0 2143 2 2460 15
2469 8 6 43 26 77 45 115 64 269 242 309 357 l11 32 91 3 c51 2 650 1 1332 -2
l1240 -5 -1326 -3z m6738 -84 c38 -74 64 -110 133 -178 68 -68 173 -145 221
-162 10 -4 16 -4938 7 -4938 -5 0 -8 1108 -8 2463 l0 2462 -58 32 c-135 74
-248 195 -314 333 l-33 69 -1325 3 -1325 3 1327 3 1327 2 48 -92z m-4777 -81
l335 -2 -342 -3 -342 -2 -22 33 -22 32 29 -27 30 -28 334 -3z m1808 23 l-22
-30 -345 2 -346 3 341 2 341 3 23 25 c32 34 35 31 8 -5z m2807 -46 c83 -136
190 -253 293 -319 l62 -40 -2 -2475 c0 -1361 -4 -2421 -8 -2355 -4 66 -8 1180
-8 2475 0 1809 -3 2355 -12 2358 -6 2 -46 30 -88 62 -80 60 -198 193 -233 261
l-19 39 -1323 2 c-1016 2 -1176 4 -692 8 347 3 943 4 1325 3 632 -3 696 -4
705 -19z m-6447 6 l-1326 -5 -50 -75 c-60 -92 -149 -182 -242 -245 l-70 -49 0
-2455 c0 -1568 -4 -2461 -10 -2471 -6 -10 -10 859 -10 2463 l0 2477 23 9 c37
15 149 101 205 159 29 31 73 88 99 129 l46 73 1331 -2 1331 -3 -1327 -5z
m6959 -5392 c-2 -13 -4 -5 -4 17 -1 22 1 32 4 23 2 -10 2 -28 0 -40z m-103
-49 c-17 -19 -19 -45 -22 -372 -2 -193 -5 -354 -8 -356 -2 -2 -4 157 -4 354
l0 358 23 21 c28 27 37 23 11 -5z m-8589 -155 l1 -149 -3 140 c-3 127 -6 141
-26 164 l-22 25 25 -16 c25 -15 25 -17 25 -164z m-128 -136 c-3 -8 -6 -5 -6 6
-1 11 2 17 5 13 3 -3 4 -12 1 -19z m128 -436 c-10 -11 -11 6 -5 193 l5 190 3
-189 c1 -104 0 -191 -3 -194z m8705 38 c0 -27 -4 -50 -10 -50 -11 0 -14 59 -4
84 10 27 14 18 14 -34z m-8833 -22 c-2 -13 -4 -3 -4 22 0 25 2 35 4 23 2 -13
2 -33 0 -45z m188 -256 l119 -123 -119 -119 c-66 -66 -123 -120 -126 -120 -4
0 -61 55 -128 123 l-120 122 122 123 c67 67 124 121 127 120 3 -2 59 -58 125
-126z m8698 3 l123 -124 -123 -123 -123 -123 -125 125 -125 125 122 122 c68
68 124 123 125 123 1 0 58 -56 126 -125z m-55 -642 c-2 -179 -6 -158 -10 60
-2 64 0 117 5 117 4 0 6 -80 5 -177z m-106 -560 c25 -26 14 -31 -14 -6 -17 15
-18 37 -16 337 l3 321 2 -315 c3 -306 4 -315 25 -337z m-8725 180 c-1 -81 -3
-17 -3 142 0 160 2 226 3 148 2 -78 2 -208 0 -290z m101 -178 l-22 -20 17 21
c15 18 17 53 19 300 l3 279 2 -280 c3 -278 3 -279 -19 -300z m8729 113 c-1
-46 -3 -11 -3 77 0 88 2 125 3 83 2 -42 2 -114 0 -160z m-8830 -210 c-3 -7 -5
-2 -5 12 0 14 2 19 5 13 2 -7 2 -19 0 -25z m8663 -2582 l0 -2514 -68 -46 c-89
-59 -210 -186 -257 -270 l-37 -66 -1326 2 -1327 3 1321 2 1322 3 42 71 c53 90
163 206 248 263 l66 44 -2 953 c-3 1024 8 4069 14 4069 2 0 4 -1131 4 -2514z
m-8670 2414 c0 -5 -4 -10 -10 -10 -5 0 -10 5 -10 10 0 6 5 10 10 10 6 0 10 -4
10 -10z m8842 -2524 l-2 -2534 -23 -6 c-44 -11 -150 -88 -223 -163 -57 -58
-84 -95 -116 -163 l-43 -89 -85 2 -85 1 82 3 82 4 11 34 c36 110 203 294 325
356 l65 34 0 2528 c0 1390 3 2527 8 2527 4 0 6 -1140 4 -2534z m-8668 1139 c3
-737 5 -1835 5 -2440 l1 -1100 48 -30 c73 -46 208 -181 264 -264 l50 -76 1327
-5 1326 -5 -1332 -3 -1333 -2 -20 39 c-50 99 -200 252 -312 320 l-38 23 0
2445 c0 1346 2 2444 4 2442 3 -2 7 -607 10 -1344z m-187 1253 c-2 -13 -4 -3
-4 22 0 25 2 35 4 23 2 -13 2 -33 0 -45z m10 -3475 c-1 -593 -2 -108 -2 1077
0 1185 1 1670 2 1078 2 -593 2 -1563 0 -2155z m46 -1454 c74 -37 185 -127 242
-196 52 -63 142 -219 132 -229 -2 -3 -24 35 -48 83 -36 73 -60 105 -139 183
-64 64 -118 108 -167 135 l-73 40 2 145 2 145 3 -142 4 -143 42 -21z m4617
-302 c0 -5 -55 -62 -122 -126 l-121 -117 -123 120 -123 120 92 96 c50 52 105
109 122 127 l30 32 123 -122 c67 -67 122 -126 122 -130z m-630 36 c0 -5 -151
-7 -337 -5 l-336 3 -36 -33 -35 -33 30 37 29 37 343 0 c188 1 342 -2 342 -6z
m1297 0 c-98 -2 -256 -2 -350 0 -95 1 -14 3 178 2 193 0 270 -1 172 -2z m2132
-142 c426 -1 772 -3 770 -5 -7 -7 -368 -9 -1424 -5 -624 2 -910 6 -715 9 179
3 386 4 460 3 74 -1 483 -2 909 -2z m-6924 -10 l40 -9 -50 0 c-27 0 -61 4 -75
8 -23 7 -22 8 10 8 19 1 53 -3 75 -7z m660 2 c-221 -7 -605 -7 -605 0 0 4 156
6 348 5 191 -1 307 -3 257 -5z m132 1 c-3 -3 -12 -4 -19 -1 -8 3 -5 6 6 6 11
1 17 -2 13 -5z m228 -4 c5 -9 -184 -3 -194 6 -2 2 39 4 92 4 53 0 99 -4 102
-10z m1514 5 c-8 -7 -1358 -10 -1365 -2 -4 3 303 6 681 7 379 0 686 -2 684 -5z
m-1442 -11 c-3 -3 -12 -4 -19 -1 -8 3 -5 6 6 6 11 1 17 -2 13 -5z"/>
<path d="M5110 14205 l-115 -116 60 -56 c33 -32 86 -82 118 -112 l58 -55 114
114 115 115 -112 112 c-62 62 -115 113 -118 113 -3 0 -57 -52 -120 -115z m147
-84 l22 -28 -28 -27 -27 -26 -22 23 c-27 29 -27 35 0 64 27 29 30 29 55 -6z"/>
<path d="M5207 14112 c-16 -18 -16 -20 3 -37 19 -18 22 -18 38 -2 13 13 14 21
6 34 -15 25 -28 26 -47 5z"/>
<path d="M760 7635 l-115 -115 115 -114 115 -115 120 114 120 115 -115 115
c-63 63 -117 115 -120 115 -3 0 -57 -52 -120 -115z m147 -134 c-12 -14 -23
-28 -25 -30 -1 -3 -15 8 -31 24 l-30 28 27 27 27 28 27 -26 28 -26 -23 -25z"/>
<path d="M856 7541 c-15 -17 -15 -20 1 -40 18 -23 19 -23 37 -3 14 16 15 24 6
41 -13 26 -22 26 -44 2z"/>
<path d="M9460 7635 l-115 -115 115 -114 115 -115 119 116 119 115 -114 114
c-62 63 -116 114 -119 114 -3 0 -57 -52 -120 -115z m166 -124 c-4 -6 -12 -11
-18 -11 -7 0 -7 4 1 13 8 11 6 18 -9 32 -20 18 -21 18 -42 -3 -21 -20 -21 -22
-4 -41 10 -11 25 -17 34 -14 14 5 15 3 5 -7 -11 -12 -18 -9 -42 14 l-28 27 26
28 26 27 29 -27 c16 -15 25 -32 22 -38z"/>
<path d="M5110 935 l-115 -115 118 -118 117 -117 115 115 114 115 -114 118
c-63 64 -116 117 -117 117 -2 0 -55 -52 -118 -115z m143 -147 l-27 -28 -25 25
c-19 18 -22 28 -14 36 8 8 11 7 10 -6 -1 -9 6 -22 15 -28 13 -9 22 -7 38 8
l22 20 -26 22 c-14 12 -26 25 -26 29 0 4 14 -5 30 -21 l30 -29 -27 -28z"/>
</g>
</svg>
